<svg width="60" height="60" viewBox="0 0 60 60" fill="none" xmlns="http://www.w3.org/2000/svg">
<circle cx="30" cy="30" r="30" fill="#D9D9D9"/>
<path d="M16.0568 34V25.2727H17.1136V33.0625H21.1705V34H16.0568ZM25.3295 34.1364C24.7386 34.1364 24.2202 33.9957 23.7741 33.7145C23.331 33.4332 22.9844 33.0398 22.7344 32.5341C22.4872 32.0284 22.3636 31.4375 22.3636 30.7614C22.3636 30.0795 22.4872 29.4844 22.7344 28.9759C22.9844 28.4673 23.331 28.0724 23.7741 27.7912C24.2202 27.5099 24.7386 27.3693 25.3295 27.3693C25.9205 27.3693 26.4375 27.5099 26.8807 27.7912C27.3267 28.0724 27.6733 28.4673 27.9205 28.9759C28.1705 29.4844 28.2955 30.0795 28.2955 30.7614C28.2955 31.4375 28.1705 32.0284 27.9205 32.5341C27.6733 33.0398 27.3267 33.4332 26.8807 33.7145C26.4375 33.9957 25.9205 34.1364 25.3295 34.1364ZM25.3295 33.233C25.7784 33.233 26.1477 33.1179 26.4375 32.8878C26.7273 32.6577 26.9418 32.3551 27.081 31.9801C27.2202 31.6051 27.2898 31.1989 27.2898 30.7614C27.2898 30.3239 27.2202 29.9162 27.081 29.5384C26.9418 29.1605 26.7273 28.8551 26.4375 28.6222C26.1477 28.3892 25.7784 28.2727 25.3295 28.2727C24.8807 28.2727 24.5114 28.3892 24.2216 28.6222C23.9318 28.8551 23.7173 29.1605 23.5781 29.5384C23.4389 29.9162 23.3693 30.3239 23.3693 30.7614C23.3693 31.1989 23.4389 31.6051 23.5781 31.9801C23.7173 32.3551 23.9318 32.6577 24.2216 32.8878C24.5114 33.1179 24.8807 33.233 25.3295 33.233ZM32.4727 36.5909C31.9869 36.5909 31.5692 36.5284 31.2198 36.4034C30.8704 36.2812 30.5792 36.1193 30.3462 35.9176C30.1161 35.7188 29.9329 35.5057 29.7965 35.2784L30.5977 34.7159C30.6886 34.8352 30.8036 34.9716 30.9428 35.125C31.082 35.2812 31.2724 35.4162 31.5138 35.5298C31.7582 35.6463 32.0778 35.7045 32.4727 35.7045C33.0011 35.7045 33.4371 35.5767 33.7809 35.321C34.1246 35.0653 34.2965 34.6648 34.2965 34.1193V32.7898H34.2113C34.1374 32.9091 34.0323 33.0568 33.896 33.233C33.7624 33.4062 33.5692 33.5611 33.3164 33.6974C33.0664 33.831 32.7283 33.8977 32.3022 33.8977C31.7738 33.8977 31.2994 33.7727 30.8789 33.5227C30.4613 33.2727 30.1303 32.9091 29.886 32.4318C29.6445 31.9545 29.5238 31.375 29.5238 30.6932C29.5238 30.0227 29.6417 29.4389 29.8775 28.9418C30.1133 28.4418 30.4414 28.0554 30.8619 27.7827C31.2823 27.5071 31.7681 27.3693 32.3192 27.3693C32.7454 27.3693 33.0835 27.4403 33.3335 27.5824C33.5863 27.7216 33.7795 27.8807 33.913 28.0597C34.0494 28.2358 34.1545 28.3807 34.2283 28.4943H34.3306V27.4545H35.3022V34.1875C35.3022 34.75 35.1744 35.2074 34.9187 35.5597C34.6658 35.9148 34.3249 36.1747 33.896 36.3395C33.4698 36.5071 32.9954 36.5909 32.4727 36.5909ZM32.4386 32.9943C32.842 32.9943 33.1829 32.902 33.4613 32.7173C33.7397 32.5327 33.9513 32.267 34.0962 31.9205C34.2411 31.5739 34.3136 31.1591 34.3136 30.6761C34.3136 30.2045 34.2425 29.7884 34.1005 29.4276C33.9585 29.0668 33.7482 28.7841 33.4698 28.5795C33.1914 28.375 32.8477 28.2727 32.4386 28.2727C32.0124 28.2727 31.6573 28.3807 31.3732 28.5966C31.092 28.8125 30.8803 29.1023 30.7383 29.4659C30.5991 29.8295 30.5295 30.233 30.5295 30.6761C30.5295 31.1307 30.6005 31.5327 30.7425 31.8821C30.8874 32.2287 31.1005 32.5014 31.3817 32.7003C31.6658 32.8963 32.0181 32.9943 32.4386 32.9943ZM39.8022 34.1364C39.2113 34.1364 38.6928 33.9957 38.2468 33.7145C37.8036 33.4332 37.457 33.0398 37.207 32.5341C36.9599 32.0284 36.8363 31.4375 36.8363 30.7614C36.8363 30.0795 36.9599 29.4844 37.207 28.9759C37.457 28.4673 37.8036 28.0724 38.2468 27.7912C38.6928 27.5099 39.2113 27.3693 39.8022 27.3693C40.3931 27.3693 40.9102 27.5099 41.3533 27.7912C41.7994 28.0724 42.146 28.4673 42.3931 28.9759C42.6431 29.4844 42.7681 30.0795 42.7681 30.7614C42.7681 31.4375 42.6431 32.0284 42.3931 32.5341C42.146 33.0398 41.7994 33.4332 41.3533 33.7145C40.9102 33.9957 40.3931 34.1364 39.8022 34.1364ZM39.8022 33.233C40.2511 33.233 40.6204 33.1179 40.9102 32.8878C41.1999 32.6577 41.4144 32.3551 41.5536 31.9801C41.6928 31.6051 41.7624 31.1989 41.7624 30.7614C41.7624 30.3239 41.6928 29.9162 41.5536 29.5384C41.4144 29.1605 41.1999 28.8551 40.9102 28.6222C40.6204 28.3892 40.2511 28.2727 39.8022 28.2727C39.3533 28.2727 38.984 28.3892 38.6942 28.6222C38.4045 28.8551 38.19 29.1605 38.0508 29.5384C37.9116 29.9162 37.842 30.3239 37.842 30.7614C37.842 31.1989 37.9116 31.6051 38.0508 31.9801C38.19 32.3551 38.4045 32.6577 38.6942 32.8878C38.984 33.1179 39.3533 33.233 39.8022 33.233Z" fill="black"/>
</svg>
